# xmcd
#
# Track frame offsets:
#	150
#	15202
#	29065
#	40318
#	50644
#	64011
#	75359
#	89026
#	99795
#	118130
#	136408
#	149175
#	161637
#	176761
#
# Disc length: 2553 seconds
#
# Revision: 2
# Processed by: cddbd v1.5.1PL0 Copyright (c) Steve Scherf et al.
# Submitted via: EasyCDDAExtractor 5.0.6
#
DISCID=c209f70e
DTITLE=Guided By Voices - Half Smiles Of The Decomposed
DYEAR=2004
DGENRE=Indie Rock
TTITLE0=Everybody Thinks I'm a Raincloud (When I'm Not Looking)
TTITLE1=Sleep Over Jack
TTITLE2=Girls of Wild Strawberries
TTITLE3=Gonna Never Have to Die
TTITLE4=Window of My World
TTITLE5=The Closets of Henry
TTITLE6=Tour Guide at the Winston Churchill Memorial
TTITLE7=Asia Minor
TTITLE8=Sons of Apollo
TTITLE9=Sing for Your Meat
TTITLE10=Asphyxiated Circle
TTITLE11=A Second Spurt of Growth
TTITLE12=(S)mothering and Coaching
TTITLE13=Huffman Prairie Flying Field
EXTD=YEAR: 2004
EXTT0=
EXTT1=
EXTT2=
EXTT3=
EXTT4=
EXTT5=
EXTT6=
EXTT7=
EXTT8=
EXTT9=
EXTT10=
EXTT11=
EXTT12=
EXTT13=
PLAYORDER=
